<svg id="Page-1" xmlns="http://www.w3.org/2000/svg" width="213.902" height="138" viewBox="0 0 213.902 138">
  <g id="Logo" transform="translate(0 0)">
    <g id="Aadhaar-English-Logo" transform="translate(0 0)">
      <g id="English-Logo">
        <path id="Fill-28" d="M0,106.868a15.312,15.312,0,0,0,4.771-4.34,40.267,40.267,0,0,1,5.555-5.889,20.836,20.836,0,0,1,10.169-4.686,88.029,88.029,0,0,0-1.283,14.914ZM14.326,53.435l0,0,0,0a15.343,15.343,0,0,0,6.3-1.374,40.367,40.367,0,0,1,7.758-2.326A20.825,20.825,0,0,1,39.6,50.781,87.624,87.624,0,0,0,24.617,76.6a20.816,20.816,0,0,1-6.466-9.143,40.2,40.2,0,0,1-1.863-7.875A15.292,15.292,0,0,0,14.326,53.435ZM53.473,14.318v0a15.325,15.325,0,0,0,6.149,1.961A40.265,40.265,0,0,1,67.5,18.14a20.8,20.8,0,0,1,9.186,6.506A87.672,87.672,0,0,0,50.823,39.582a20.767,20.767,0,0,1-1.051-11.213A40.152,40.152,0,0,1,52.1,20.618,15.274,15.274,0,0,0,53.473,14.318ZM106.95,0V0l0,0A15.264,15.264,0,0,0,111.3,4.768a40.374,40.374,0,0,1,5.894,5.551,20.788,20.788,0,0,1,4.7,10.241,88.416,88.416,0,0,0-29.88,0,20.781,20.781,0,0,1,4.7-10.242,40.387,40.387,0,0,1,5.893-5.551A15.265,15.265,0,0,0,106.95,0Zm53.475,14.317v0l0,0a15.281,15.281,0,0,0,1.376,6.3,40.291,40.291,0,0,1,2.327,7.751,20.793,20.793,0,0,1-1.052,11.212,87.717,87.717,0,0,0-25.867-14.936A20.8,20.8,0,0,1,146.4,18.14a40.229,40.229,0,0,1,7.882-1.863A15.292,15.292,0,0,0,160.424,14.317Zm39.148,39.116,0,0h0a15.3,15.3,0,0,0-1.961,6.144,40.243,40.243,0,0,1-1.863,7.874,20.808,20.808,0,0,1-6.467,9.143A87.578,87.578,0,0,0,174.3,50.78a20.83,20.83,0,0,1,11.21-1.047,40.339,40.339,0,0,1,7.757,2.326A15.313,15.313,0,0,0,199.573,53.433Zm-6.167,38.52a20.844,20.844,0,0,1,10.17,4.687,40.216,40.216,0,0,1,5.555,5.889,15.292,15.292,0,0,0,4.771,4.34H194.691A88.143,88.143,0,0,0,193.405,91.953ZM132.449,30.064a81.252,81.252,0,0,1,55.765,76.806H172.236C173.3,75.595,159.634,47.366,132.449,30.064Z" transform="translate(0 0)" fill="#fab401"/>
        <path id="Fill-29" d="M118.909,88.652H127.2c.4-9.064-.372-19.8-3.287-29.181a52.419,52.419,0,0,0-1.981-5.362A45.88,45.88,0,0,0,114.962,43a48,48,0,0,0-11.126-9.819,41.724,41.724,0,0,0-3.876-2.17v0a39.013,39.013,0,0,0-4.108-1.738l-.006,0C79.7,23.5,63.361,27.6,49.659,35.1c-2.671,1.461-5.242,3.051-7.69,4.721S37.192,43.241,35,45.029h0l0,0a95.066,95.066,0,0,0-9.077,8.459c-.634.675-1.261,1.363-1.869,2.06-1.631,1.858-4.142,4.463-3.4,7.158.591,2.138,3.331,1.507,4.287.77a27.867,27.867,0,0,0,4.452-3.217c1.865-1.588,3.626-3.3,5.472-4.907a92.172,92.172,0,0,1,22.92-14.934q2.508-1.11,5.012-2T67.749,36.9l.007,0c14.268-3.728,29.772-1.312,39.7,10.391C117.017,58.565,118.763,73.656,118.909,88.652ZM16.006,75.909a28.469,28.469,0,0,0,2.745-3.137,4.39,4.39,0,0,0,.934-4.505,3.1,3.1,0,0,0-.833-1.114,2.85,2.85,0,0,0-1.2-.6,3.479,3.479,0,0,0-3.464,1.481c-1.239,1.517-2.951,4.109-3.3,6.4a4.738,4.738,0,0,0-.038,1.239,3.065,3.065,0,0,0,.314,1.075v0h0a1.519,1.519,0,0,0,1.378.846,2.839,2.839,0,0,0,.422-.018,3.812,3.812,0,0,0,.476-.085h0l.007,0A6,6,0,0,0,16.006,75.909Zm86.03,12.743h8.225c.391-9.769-1.174-19.859-5.69-28.59-4.107-7.942-10.9-13.341-19.686-14.646-12.831-1.9-25.779,3.559-36.723,11.377C36.243,65.3,26.406,76.863,17.809,88.652l10.865-.014c9.782-13.947,32.283-35.12,48.833-35.259,5.274-.044,10.637,1.2,14.6,4.76,2.873,2.578,6.356,7.586,6.185,11.649-.1,2.41-2.227,3.148-4.266,2.4-1.584-.58-2.7-2.037-3.811-3.567a15.846,15.846,0,0,0-15.379-6.56c-7.349,1.011-16.458,6.75-22.333,11.97A142.972,142.972,0,0,0,38.4,88.652H50.081A60.015,60.015,0,0,1,64.7,75.377a32.644,32.644,0,0,1,6.486-3.194c6.005-2.078,11.982-1.551,14.635,5.971,1.043,2.957,1.2,5.551.892,10.3v.193h7.945l.02-.244c.006-2.6-.05-4.356.183-6.936.2-2.224.888-4.528,2.941-4.8C102.159,75.751,101.949,85.515,102.035,88.652ZM46.042,113.9H39.587l-1.6,5.658H32.844L39.65,97.894h6.52l7,21.665H47.8Zm-5.72-3.665h4.953q-1.95-6.348-2.525-8.711h-.064l-1.022,4.115ZM22.333,113.9H15.879l-1.6,5.658H9.136l6.806-21.665H22.46l7,21.665H24.09Zm-5.72-3.665h4.952q-1.948-6.348-2.523-8.711h-.064l-1.022,4.115Zm41.473,9.226V98.182a46.026,46.026,0,0,1,6.839-.481q6.887,0,9.886,2.9a10.081,10.081,0,0,1,2.993,7.58q0,5.529-3.409,8.567t-10.525,3.037A45.708,45.708,0,0,1,58.087,119.462Zm4.954-17.743V115.83a10.054,10.054,0,0,0,1.79.1,7.891,7.891,0,0,0,5.714-1.957,7.42,7.42,0,0,0,2.018-5.6,6.7,6.7,0,0,0-1.842-5.095,7.431,7.431,0,0,0-5.316-1.752A11.779,11.779,0,0,0,63.041,101.719Zm20.065-3.825H88.06v8.324h8.468V97.894h4.953v21.665H96.528v-9.032H88.06v9.032H83.106ZM119.438,113.9h-6.455l-1.6,5.658H106.24l6.806-21.665h6.519l7,21.665h-5.368Zm-5.72-3.665h4.952q-1.948-6.348-2.524-8.711h-.064l-1.023,4.115Zm29.428,3.665h-6.455l-1.6,5.658H129.95l6.806-21.665h6.519l7,21.665H144.9Zm-5.721-3.665h4.953q-1.948-6.348-2.524-8.711h-.063l-1.023,4.115Zm17.765,9.323V98.182a39.159,39.159,0,0,1,6.678-.481q4.89,0,7.031,1.622a5.48,5.48,0,0,1,2.141,4.645,5.32,5.32,0,0,1-1.075,3.251,5.754,5.754,0,0,1-2.791,2.052v.129q2.013.755,2.908,3.985,1.645,5.819,1.79,6.173h-5.049a25.059,25.059,0,0,1-1.534-5.047,5.691,5.691,0,0,0-1.214-2.7,3.359,3.359,0,0,0-2.462-.772h-1.533v8.519Zm4.889-18.033v5.947h2.045a4.6,4.6,0,0,0,2.924-.848,2.739,2.739,0,0,0,1.071-2.271,2.68,2.68,0,0,0-.965-2.213,4.268,4.268,0,0,0-2.743-.777A10.782,10.782,0,0,0,160.081,101.526Zm-87.7-12.854,6.592-.02c.866-5.6-.828-9.913-6.46-8.886-4.748.868-9.847,5.611-12.927,8.886l8.692-.038c.969-.641,2.864-1.371,3.643-.827A1.06,1.06,0,0,1,72.386,88.672Zm67.268-.016.06,0h.03a3.665,3.665,0,0,0,3.242-1.828,4.5,4.5,0,0,0,.434-1.014,6.091,6.091,0,0,0,.228-1.326h0l.005-.1c.659-23.17-6.4-42.351-18.373-55.384a58.931,58.931,0,0,0-7.525-6.887,56.674,56.674,0,0,0-8.513-5.4h0l-.047-.025h0A60.362,60.362,0,0,0,76.5,10.483a64.517,64.517,0,0,0-12.9,2.436l-.029.009A73.171,73.171,0,0,0,32.585,32.1q-2.554,2.61-4.868,5.446-1.147,1.406-2.232,2.863A109.083,109.083,0,0,1,45.069,26.713q2.324-1.253,4.669-2.346t4.75-2.034l.006,0,0,0a71.426,71.426,0,0,1,18.059-4.568,66.442,66.442,0,0,1,18.076.458,54.566,54.566,0,0,1,12.372,3.431c.739.309,1.467.639,2.179.986s1.394.708,2.072,1.092h0l.01.006h0C120.682,31.123,130,46.284,134.106,63.4a85.853,85.853,0,0,1,2.36,20.555h0l0,.2a5.007,5.007,0,0,0,1.782,4.1,2.451,2.451,0,0,0,.653.3h0A2.629,2.629,0,0,0,139.654,88.656Z" transform="translate(16.747 18.216)" fill="#d32828"/>
      </g>
    </g>
  </g>
</svg>
